HIERARCHY
ROOT Hips
{
	OFFSET 0.00000 0.00000 0.00000
	CHANNELS 6 Xposition Yposition Zposition Zrotation Yrotation Xrotation 
	JOINT LHipJoint
	{
		OFFSET 0 0 0
		CHANNELS 3 Zrotation Yrotation Xrotation
		JOINT LeftHip
		{
			OFFSET 1.75344 -1.53157 0.77399
			CHANNELS 3 Zrotation Yrotation Xrotation
			JOINT LeftKnee
			{
				OFFSET 2.25415 -6.19323 0.00000
				CHANNELS 3 Zrotation Yrotation Xrotation
				JOINT LeftAnkle
				{
					OFFSET 2.30342 -6.32861 0.00000
					CHANNELS 3 Zrotation Yrotation Xrotation
					JOINT LeftToe
					{
						OFFSET 0.10958 -0.30108 1.49206
						CHANNELS 3 Zrotation Yrotation Xrotation
						End Site
						{
							OFFSET 0.00000 -0.00000 0.77783
						}
					}
				}
			}
		}
	}
	JOINT RHipJoint
	{
		OFFSET 0 0 0
		CHANNELS 3 Zrotation Yrotation Xrotation
		JOINT RightHip
		{
			OFFSET -1.81912 -1.53156 0.77399
			CHANNELS 3 Zrotation Yrotation Xrotation
			JOINT RightKnee
			{
				OFFSET -2.22882 -6.12365 0.00000
				CHANNELS 3 Zrotation Yrotation Xrotation
				JOINT RightAnkle
				{
					OFFSET -2.21943 -6.09785 0.00000
					CHANNELS 3 Zrotation Yrotation Xrotation
					JOINT RightToe
					{
						OFFSET -0.18931 -0.52012 1.59379
						CHANNELS 3 Zrotation Yrotation Xrotation
						End Site
						{
							OFFSET -0.00000 -0.00000 0.84686
						}
					}
				}
			}
		}
	}
	JOINT lowerback
	{
		OFFSET 0 0 0
		CHANNELS 3 Zrotation Yrotation Xrotation
		JOINT Chest
		{
			OFFSET -0.00200 1.66634 -0.14248
			CHANNELS 3 Zrotation Yrotation Xrotation
			JOINT Chest2
			{
				OFFSET -0.00875 1.64542 0.09514
				CHANNELS 3 Zrotation Yrotation Xrotation
				JOINT lowerneck
				{
					OFFSET 0 0 0
					CHANNELS 3 Zrotation Yrotation Xrotation
					JOINT Neck
					{
						OFFSET 0.02257 1.59605 0.00839
						CHANNELS 3 Zrotation Yrotation Xrotation
						JOINT Head
						{
							OFFSET -0.10214 1.57530 -0.23335
							CHANNELS 3 Zrotation Yrotation Xrotation
							End Site
							{
								OFFSET -0.03588 1.60717 -0.08062
							}
						}
					}
				}
				JOINT LeftCollar
				{
					OFFSET 0 0 0
					CHANNELS 3 Zrotation Yrotation Xrotation
					JOINT LeftShoulder
					{
						OFFSET 2.54983 1.10186 0.40078
CHANNELS 3 Zrotation Xrotation Yrotation
						JOINT LeftElbow
						{
OFFSET 0 -4.288400 0.000000
CHANNELS 3 Zrotation Xrotation Yrotation
							JOINT LeftWrist
							{
OFFSET 0 -3.065520 -0.000000
CHANNELS 3 Zrotation Xrotation Yrotation
								JOINT lhand
								{
									OFFSET 0 0 0
CHANNELS 3 Zrotation Xrotation Yrotation
									JOINT LFingers
									{
OFFSET 0 -0.753040 0.000000
CHANNELS 3 Zrotation Xrotation Yrotation
										End Site
										{
OFFSET 0 -0.607120 0.000000
										}
									}
								}
								JOINT LThumb
								{
OFFSET 0 0.000000 0.000000
CHANNELS 3 Zrotation Xrotation Yrotation
									End Site
									{
OFFSET 0 -0.616390 0.616390
									}
								}
							}
						}
					}
				}
				JOINT RightCollar
				{
					OFFSET 0 0 0
					CHANNELS 3 Zrotation Yrotation Xrotation
					JOINT RightShoulder
					{
						OFFSET -2.60909 1.35448 0.21802
CHANNELS 3 Zrotation Xrotation Yrotation
						JOINT RightElbow
						{
OFFSET 0 -4.521720 -0.000000
CHANNELS 3 Zrotation Xrotation Yrotation
							JOINT RightWrist
							{
OFFSET 0 -2.891400 0.000000
CHANNELS 3 Zrotation Xrotation Yrotation
								JOINT rhand
								{
									OFFSET 0 0 0
CHANNELS 3 Zrotation Xrotation Yrotation
									JOINT RFingers
									{
OFFSET 0 -0.680540 0.000000
CHANNELS 3 Zrotation Xrotation Yrotation
										End Site
										{
OFFSET 0 -0.548670 0.000000
										}
									}
								}
								JOINT RThumb
								{
OFFSET 0 0.000000 0.000000
CHANNELS 3 Zrotation Xrotation Yrotation
									End Site
									{
OFFSET 0 -0.557050 0.557050
									}
								}
							}
						}
					}
				}
			}
		}
	}
}
MOTION
Frames: 11
Frame Time: 0.008333333333333333
7.915486 11.079807 24.462338 -178.459554 2.209665 -147.526464 0.000000 0.000000 0.000000 -8.952770 -8.742821 -98.224337 23.664049 19.674994 100.768944 2.845991 -25.630232 -33.119069 0.230951 -3.013316 -8.321783 0.000000 0.000000 0.000000 14.687226 17.037557 -94.139513 -23.664569 -19.674915 100.770534 -4.467238 -3.769916 -41.419029 -0.051541 -1.447422 3.981087 -3.779430 0.869911 62.758467 0.405894 2.262494 3.736697 0.471731 2.477019 -17.870504 -6.352665 -5.805901 -16.424588 7.701539 -3.809579 -16.815120 3.407777 -0.366689 -2.302119 0.000000 0.000000 0.000000 43.980515 -31.955754 -23.908888 80.014265 -59.608517 51.364092 76.317572 -115.577657 60.597300 0.000000 0.000000 0.000000 -7.125000 0.000000 0.000000 2.159046 -52.407459 3.028003 0.000000 0.000000 0.000000 -59.949419 -31.427799 28.030207 -63.205049 -57.099476 -37.021542 -40.686775 43.576781 41.040909 0.000000 0.000000 0.000000 7.125000 0.000000 0.000000 -10.172206 78.765660 8.008285
7.921699 11.097766 24.431680 -178.413401 2.035299 -147.102761 0.000000 0.000000 0.000000 -8.825707 -8.810065 -98.464865 23.617046 19.683354 100.629456 2.714362 -26.309695 -32.750842 0.101755 -2.040897 -5.619174 0.000000 0.000000 0.000000 14.686615 17.147202 -94.269308 -23.591497 -19.687907 100.553642 -4.505750 -3.608421 -41.533522 -0.083457 -1.857351 5.111784 -3.707893 0.874382 63.218943 0.481073 2.380775 3.800369 0.458917 2.534556 -17.807605 -6.259849 -5.806224 -16.649163 7.496998 -3.885365 -16.420460 3.430387 -0.415102 -2.266445 0.000000 0.000000 0.000000 42.841234 -30.111536 -26.717439 76.443419 -59.285026 48.288440 77.536333 -115.623721 59.645318 0.000000 0.000000 0.000000 -7.125000 0.000000 0.000000 3.388565 -52.752984 4.749997 0.000000 0.000000 0.000000 -58.870460 -29.959381 29.838140 -60.977703 -56.559829 -35.156902 -40.702654 42.959293 40.762461 0.000000 0.000000 0.000000 7.125000 0.000000 0.000000 -10.425922 78.481748 8.146599
7.924755 11.119993 24.398854 -178.406392 1.909787 -146.670402 0.000000 0.000000 0.000000 -8.810951 -8.895911 -98.644500 23.549317 19.695250 100.428530 2.765341 -26.334461 -32.988196 0.106270 -2.097439 -5.775183 0.000000 0.000000 0.000000 14.591410 17.262883 -94.413073 -23.521662 -19.700045 100.346311 -4.543385 -3.587733 -41.694233 -0.099972 -2.038076 5.610957 -3.637880 0.891568 63.703289 0.541498 2.487556 3.799296 0.434637 2.581815 -17.823117 -6.198614 -5.829324 -16.824439 7.328751 -3.993861 -16.062695 3.345465 -0.495851 -2.110330 0.000000 0.000000 0.000000 41.555584 -27.971072 -30.127767 71.219068 -58.600458 43.813829 81.762752 -116.523909 57.294588 0.000000 0.000000 0.000000 -7.125000 0.000000 0.000000 6.814826 -54.560445 9.509519 0.000000 0.000000 0.000000 -57.601134 -28.274224 31.840025 -58.680009 -55.942900 -33.246206 -41.120828 43.353135 40.423603 0.000000 0.000000 0.000000 7.125000 0.000000 0.000000 -11.760609 78.272627 9.145158
7.932766 11.143130 24.364602 -178.528800 1.814005 -146.160306 0.000000 0.000000 0.000000 -8.901509 -9.053136 -98.858273 23.461373 19.710240 100.167389 2.820904 -26.269222 -33.215378 0.127737 -2.303593 -6.345608 0.000000 0.000000 0.000000 14.326465 17.373590 -94.690689 -23.440410 -19.713812 100.105461 -4.564095 -3.584404 -41.785225 -0.122774 -2.257194 6.216958 -3.724825 0.984950 64.045796 0.596720 2.571922 3.833427 0.487683 2.626132 -17.788674 -6.039695 -5.800423 -16.959048 7.125229 -4.044149 -15.756062 3.234579 -0.550748 -1.986760 0.000000 0.000000 0.000000 40.447597 -26.012958 -32.932779 66.740616 -57.846201 40.003298 84.949732 -117.361779 55.812656 0.000000 0.000000 0.000000 -7.125000 0.000000 0.000000 9.178383 -56.157960 12.758955 0.000000 0.000000 0.000000 -56.820269 -26.641870 33.758279 -56.306731 -55.239219 -31.287633 -41.362275 43.458931 40.363610 0.000000 0.000000 0.000000 7.125000 0.000000 0.000000 -12.432626 78.292563 9.675670
7.945093 11.171595 24.329452 -178.616104 1.752094 -145.626902 0.000000 0.000000 0.000000 -8.987594 -9.095315 -99.096609 23.359787 19.727186 99.866367 2.839921 -26.244061 -33.291702 0.164257 -2.610623 -7.196566 0.000000 0.000000 0.000000 14.169228 17.531817 -94.920419 -23.326355 -19.732630 99.767462 -4.544201 -3.795661 -41.771896 -0.113247 -2.169524 5.974516 -3.905846 1.139922 64.223400 0.662689 2.676014 3.942847 0.588686 2.682792 -17.657535 -6.621860 -2.835526 -16.946124 6.214710 -4.515568 -15.788757 3.094962 -3.095805 -2.041920 0.000000 0.000000 0.000000 39.579335 -24.311599 -34.351485 65.094588 -57.521123 38.610738 81.734314 -115.588920 57.991328 0.000000 0.000000 0.000000 -7.125000 0.000000 0.000000 5.999390 -54.692553 8.370870 0.000000 0.000000 0.000000 -56.490098 -24.979996 35.693249 -54.214816 -54.559499 -29.575369 -41.252161 42.677653 40.676002 0.000000 0.000000 0.000000 7.125000 0.000000 0.000000 -11.945403 78.581430 9.364985
7.955104 11.199130 24.292391 -178.547017 1.658851 -145.036316 0.000000 0.000000 0.000000 -8.900866 -9.080724 -99.434887 23.261028 19.743048 99.574090 2.883655 -26.026074 -33.414913 0.242796 -3.170668 -8.754389 0.000000 0.000000 0.000000 14.223823 17.693915 -95.149880 -23.199965 -19.752675 99.393302 -4.527000 -4.039487 -41.783549 -0.079341 -1.816956 5.000126 -3.868754 0.754783 64.359895 0.265330 2.289684 4.314862 0.312775 2.571451 -17.155585 -6.085251 -2.500613 -17.603523 6.330537 -4.263751 -15.694201 3.034690 -3.078024 -1.928971 0.000000 0.000000 0.000000 40.897208 -22.753274 -34.762984 62.921044 -57.036419 36.782655 78.008165 -112.984961 59.112521 0.000000 0.000000 0.000000 -7.125000 0.000000 0.000000 4.045913 -52.844018 5.670889 0.000000 0.000000 0.000000 -58.023561 -24.232962 37.487617 -53.221494 -54.214170 -28.767927 -41.640086 40.021523 41.289562 0.000000 0.000000 0.000000 7.125000 0.000000 0.000000 -12.621566 79.352562 10.098332
7.963283 11.232909 24.252899 -178.468673 1.609208 -144.441895 0.000000 0.000000 0.000000 -8.825523 -9.050108 -99.706662 23.145180 19.761061 99.231094 2.856588 -26.176469 -33.344412 0.220712 -2.983484 -8.235571 0.000000 0.000000 0.000000 14.256384 17.851552 -95.335562 -23.063331 -19.773452 98.989258 -4.535500 -4.033996 -41.819549 -0.074667 -1.761075 4.845915 -3.885016 0.813440 64.471543 0.243454 2.364551 4.410508 0.257656 2.604500 -17.036532 -5.939497 -2.550415 -17.704270 6.312190 -4.306055 -15.443537 2.988228 -3.081309 -1.824977 0.000000 0.000000 0.000000 40.331325 -20.837087 -36.697752 59.895075 -56.274865 34.255416 76.310709 -110.188044 59.462965 0.000000 0.000000 0.000000 -7.125000 0.000000 0.000000 3.347210 -52.008270 4.699989 0.000000 0.000000 0.000000 -57.885584 -22.378640 39.890805 -51.720694 -53.661328 -27.555716 -42.800567 40.013822 41.576295 0.000000 0.000000 0.000000 7.125000 0.000000 0.000000 -15.944839 80.039504 12.994822
7.969140 11.271046 24.213718 -178.503773 1.618374 -143.877239 0.000000 0.000000 0.000000 -8.893167 -9.079953 -99.867189 23.010558 19.781199 98.833149 2.744270 -26.574680 -32.976846 0.119271 -2.192640 -6.039791 0.000000 0.000000 0.000000 14.173570 17.909460 -95.517273 -22.922523 -19.793912 98.573214 -4.525579 -3.939830 -41.740936 -0.088993 -1.924249 5.296344 -3.828787 0.621522 64.661563 0.077475 2.158638 4.477397 0.144927 2.528682 -16.940493 -6.125427 -2.624359 -17.762444 6.535860 -4.306936 -15.149210 3.089513 -3.044871 -1.704115 0.000000 0.000000 0.000000 40.483399 -18.596138 -38.428263 56.982305 -55.444344 31.844125 76.498658 -109.771180 59.395114 0.000000 0.000000 0.000000 -7.125000 0.000000 0.000000 3.454702 -52.088835 4.850160 0.000000 0.000000 0.000000 -56.582029 -21.021115 42.415858 -49.390458 -52.738767 -25.690267 -43.640196 41.253258 41.716575 0.000000 0.000000 0.000000 7.125000 0.000000 0.000000 -18.607475 80.457742 15.331210
7.973394 11.308471 24.174177 -178.561820 1.615197 -143.299155 0.000000 0.000000 0.000000 -8.992814 -9.152125 -100.036548 22.871160 19.801092 98.421523 2.808513 -26.304670 -33.171707 0.172140 -2.668084 -7.356350 0.000000 0.000000 0.000000 14.113306 17.878484 -95.735054 -22.777187 -19.813946 98.144097 -4.496974 -3.974554 -41.626206 -0.083214 -1.857353 5.111670 -3.794034 0.549870 64.824593 0.007059 2.070705 4.472545 0.091835 2.489585 -16.941599 -6.371913 -2.812545 -17.746231 6.745512 -4.435799 -14.749641 3.188614 -3.056816 -1.548763 0.000000 0.000000 0.000000 39.930847 -16.197874 -40.208236 54.544735 -54.663486 29.846286 75.329175 -107.890295 59.568739 0.000000 0.000000 0.000000 -7.125000 0.000000 0.000000 3.044043 -51.509884 4.277743 0.000000 0.000000 0.000000 -55.228265 -19.267329 44.759929 -47.114123 -51.755714 -23.890071 -43.511668 42.259598 41.893207 0.000000 0.000000 0.000000 7.125000 0.000000 0.000000 -18.117329 80.599683 14.973174
7.979943 11.348368 24.135029 -178.566523 1.603577 -142.738905 0.000000 0.000000 0.000000 -9.076309 -9.127710 -100.204533 22.722817 19.821185 97.983794 2.766934 -26.271243 -32.974196 0.142759 -2.434523 -6.708202 0.000000 0.000000 0.000000 14.174736 17.866306 -95.880287 -22.612882 -19.835383 97.659739 -4.454385 -4.023673 -41.453516 -0.070901 -1.717416 4.725244 -3.893862 0.784698 64.915510 0.133584 2.284058 4.467580 0.174005 2.565892 -16.957032 -6.442429 -3.047995 -17.568387 6.750540 -4.678671 -14.483643 3.184385 -3.138745 -1.465600 0.000000 0.000000 0.000000 38.601235 -14.051436 -42.114781 51.914530 -53.726896 27.713767 73.097338 -104.532893 59.737105 0.000000 0.000000 0.000000 -7.125000 0.000000 0.000000 2.421961 -50.358394 3.410714 0.000000 0.000000 0.000000 -54.473231 -16.927735 46.949563 -45.326736 -50.923626 -22.493243 -42.095337 42.128964 42.370828 0.000000 0.000000 0.000000 7.125000 0.000000 0.000000 -13.256090 80.618923 10.953903
7.988553 11.391171 24.096971 -178.479270 1.504141 -142.201082 0.000000 0.000000 0.000000 -9.049915 -9.043253 -100.385536 22.570951 19.840674 97.536106 2.691080 -26.683036 -32.777001 0.123821 -2.266185 -6.241982 0.000000 0.000000 0.000000 14.443702 17.831839 -95.942797 -22.436522 -19.856943 97.140305 -4.424718 -3.900033 -41.275136 -0.080434 -1.826674 5.026978 -3.867490 0.851124 64.966374 0.202771 2.399196 4.525071 0.188186 2.604549 -16.891564 -6.480191 -3.145208 -17.357959 6.704039 -4.771046 -14.403391 3.171217 -3.163721 -1.464493 0.000000 0.000000 0.000000 37.831922 -11.768850 -43.796796 49.373366 -52.731180 25.676829 72.013869 -102.729115 59.695645 0.000000 0.000000 0.000000 -7.125000 0.000000 0.000000 2.236854 -49.760093 3.153016 0.000000 0.000000 0.000000 -53.768449 -14.928686 49.361957 -43.375749 -49.936536 -20.991126 -39.833697 40.749019 42.387078 0.000000 0.000000 0.000000 7.125000 0.000000 0.000000 -6.605221 79.843375 5.367894
